HIERARCHY
ROOT Hips
{
	OFFSET	0.00	0.00	0.00
	CHANNELS 6 Xposition Yposition Zposition Zrotation Xrotation Yrotation
	JOINT LeftUpLeg
	{
		OFFSET	 0.126116	-0.065224	 0.014019
		CHANNELS 3 Zrotation Xrotation Yrotation
		JOINT LeftLeg
		{
			OFFSET	 0.000000	 0.569914	 0.000000
			CHANNELS 3 Zrotation Xrotation Yrotation
			JOINT LeftFoot
			{
				OFFSET	 0.000000	 0.544423	 0.000000
				CHANNELS 3 Zrotation Xrotation Yrotation
				JOINT LeftToeBase
				{
					OFFSET	 0.000000	 0.207117	 0.000000
					CHANNELS 3 Zrotation Xrotation Yrotation
					End Site
					{
						OFFSET	 0.000000	 0.207117	 0.000000
					}
				}
			}
		}
	}
	JOINT RightUpLeg
	{
		OFFSET	-0.124023	-0.065224	 0.008373
		CHANNELS 3 Zrotation Xrotation Yrotation
		JOINT RightLeg
		{
			OFFSET	 0.000000	 0.570047	 0.000000
			CHANNELS 3 Zrotation Xrotation Yrotation
			JOINT RightFoot
			{
				OFFSET	 0.000000	 0.544354	 0.000000
				CHANNELS 3 Zrotation Xrotation Yrotation
				JOINT RightToeBase
				{
					OFFSET	 0.000000	 0.207540	 0.000000
					CHANNELS 3 Zrotation Xrotation Yrotation
					End Site
					{
						OFFSET	 0.000000	 0.207540	 0.000000
					}
				}
			}
		}
	}
	JOINT Spine
	{
		OFFSET	 0.000184	 0.117403	 0.007763
		CHANNELS 3 Zrotation Xrotation Yrotation
		JOINT Spine1
		{
			OFFSET	 0.000000	 0.137269	 0.000000
			CHANNELS 3 Zrotation Xrotation Yrotation
			JOINT Spine2
			{
				OFFSET	 0.000000	 0.156879	 0.000000
				CHANNELS 3 Zrotation Xrotation Yrotation
				JOINT LeftShoulder
				{
					OFFSET	 0.080501	 0.160143	 0.002496
					CHANNELS 3 Zrotation Xrotation Yrotation
					JOINT LeftArm
					{
						OFFSET	 0.000000	 0.164363	 0.000000
						CHANNELS 3 Zrotation Xrotation Yrotation
						JOINT LeftForeArm
						{
							OFFSET	 0.000000	 0.364576	 0.000000
							CHANNELS 3 Zrotation Xrotation Yrotation
							JOINT LeftHand
							{
								OFFSET	 0.000000	 0.360812	 0.000000
								CHANNELS 3 Zrotation Xrotation Yrotation
								JOINT LeftHandIndex1
								{
									OFFSET	 0.000000	 0.086006	 0.000000
									CHANNELS 3 Zrotation Xrotation Yrotation
									JOINT LeftHandIndex2
									{
										OFFSET	 0.000000	 0.047237	 0.000000
										CHANNELS 3 Zrotation Xrotation Yrotation
										JOINT LeftHandIndex3
										{
											OFFSET	-0.004284	 0.038165	 0.000551
											CHANNELS 3 Zrotation Xrotation Yrotation
											End Site
											{
												OFFSET	-0.004284	 0.038165	 0.000551
											}
										}
									}
								}
							}
						}
					}
				}
				JOINT Neck
				{
					OFFSET	 0.000000	 0.176489	 0.000000
					CHANNELS 3 Zrotation Xrotation Yrotation
					JOINT Head
					{
						OFFSET	 0.000000	 0.077941	 0.001747
						CHANNELS 3 Zrotation Xrotation Yrotation
						End Site
						{
							OFFSET	 0.000000	 0.077941	 0.001747
						}
					}
				}
				JOINT RightShoulder
				{
					OFFSET	-0.080363	 0.159706	-0.000306
					CHANNELS 3 Zrotation Xrotation Yrotation
					JOINT RightArm
					{
						OFFSET	 0.000000	 0.164196	 0.000000
						CHANNELS 3 Zrotation Xrotation Yrotation
						JOINT RightForeArm
						{
							OFFSET	 0.000000	 0.365611	 0.000000
							CHANNELS 3 Zrotation Xrotation Yrotation
							JOINT RightHand
							{
								OFFSET	 0.000000	 0.360648	 0.000000
								CHANNELS 3 Zrotation Xrotation Yrotation
								JOINT RightHandIndex1
								{
									OFFSET	 0.000000	 0.069977	 0.000000
									CHANNELS 3 Zrotation Xrotation Yrotation
									JOINT RightHandIndex2
									{
										OFFSET	 0.000000	 0.052305	 0.000000
										CHANNELS 3 Zrotation Xrotation Yrotation
										JOINT RightHandIndex3
										{
											OFFSET	 0.009002	 0.042196	 0.000782
											CHANNELS 3 Zrotation Xrotation Yrotation
											End Site
											{
												OFFSET	 0.009002	 0.042196	 0.000782
											}
										}
									}
								}
							}
						}
					}
				}
			}
		}
	}
}
MOTION
Frames:    8
Frame Time: 0.03333334
-0.006754	 1.233700	 0.011079	 1.990639	 0.401868	 172.168700	-158.335000	 9.991491	-34.305210	 4.055455	-14.909410	 2.594183	-9.207727	 58.477930	 2.409148	 1.161946	 26.688170	-2.659627	 170.519800	 9.464088	 26.083740	-2.407292	-29.014070	 7.834569	 13.475680	 75.484730	-9.222562	-1.288917	 28.371480	 2.710486	 2.234108	 6.326774	 1.269865	 0.531459	 3.924899	 0.887177	 1.412978	-3.352985	 0.548665	-113.162800	 6.488489	 92.938440	 43.708890	 25.518400	-11.924910	 4.203115	-0.213456	-0.147104	 3.380089	 13.459960	 6.079467	 0.586528	 8.573640	-0.355615	-5.949301	 13.595510	 1.519874	 4.987249	-3.485248	-0.334044	 3.184904	-6.826357	 0.876346	-1.254276	-5.453270	 3.507376	 123.437300	 10.377120	-96.381140	-5.935870	 38.853330	-2.882737	-5.130247	-0.198819	 0.120816	-7.257334	-8.856024	-22.077050	-2.316911	 4.873928	 0.895895	 12.535880	 22.868230	-5.152135	-8.500439	 13.076920	-0.523903
-0.006804	 1.234880	 0.011073	 1.969146	 0.360154	 171.970700	-158.268800	 9.992560	-34.814050	 4.087241	-14.987830	 2.553165	-9.193881	 58.276410	 2.491514	 1.161772	 26.685820	-2.659558	 170.448400	 9.527527	 26.279110	-2.405676	-29.021550	 7.754312	 12.905040	 75.235940	-8.699642	-1.288751	 28.369290	 2.710415	 2.331004	 6.294108	 0.838899	 0.461973	 3.906518	 0.919088	 1.452883	-3.378907	 0.590054	-113.086900	 6.499159	 92.946460	 43.717710	 25.492880	-11.883910	 4.382082	-0.213787	-0.312215	 3.506469	 13.304070	 5.964260	 0.645484	 8.390734	-0.355230	-5.948551	 13.636610	 1.524281	 4.990224	-3.419936	-0.332468	 3.182750	-6.827960	 0.888754	-1.256494	-5.489790	 3.602194	 123.386400	 10.385410	-96.375840	-5.893773	 38.799010	-2.843056	-5.313277	-0.199080	 0.285889	-7.490298	-9.073897	-21.823190	-2.338227	 4.940691	 0.895047	 12.548650	 23.044350	-5.194686	-8.501705	 13.221080	-0.533003
-0.006886	 1.236304	 0.011120	 1.935546	 0.293966	 171.657900	-158.175400	 9.996431	-35.471840	 4.122500	-15.111040	 2.434622	-9.229374	 58.050150	 2.652056	 1.161497	 26.682090	-2.659448	 170.363300	 9.637876	 26.479300	-2.402997	-29.031590	 7.627499	 12.094630	 74.921880	-7.953863	-1.288487	 28.365830	 2.710304	 2.483762	 6.240231	 0.149544	 0.369087	 3.880670	 0.960760	 1.508321	-3.421573	 0.655386	-112.966900	 6.516026	 92.959030	 43.742670	 25.480150	-11.828950	 4.662216	-0.214108	-0.573245	 3.699207	 13.025810	 5.774192	 0.738643	 8.101549	-0.354235	-5.947371	 13.701560	 1.531246	 4.994921	-3.316699	-0.329984	 3.179344	-6.830495	 0.908366	-1.259873	-5.547473	 3.752110	 123.305900	 10.398520	-96.367420	-5.835779	 38.736920	-2.775736	-5.600789	-0.199629	 0.546997	-7.857029	-9.445854	-21.444030	-2.371922	 5.046225	 0.893758	 12.569170	 23.322770	-5.262160	-8.503660	 13.448980	-0.547395
-0.006968	 1.237450	 0.011209	 1.902645	 0.227854	 171.345700	-158.088600	 10.001290	-36.069210	 4.156892	-15.231080	 2.316329	-9.299526	 57.882360	 2.830201	 1.161223	 26.678380	-2.659339	 170.297200	 9.754840	 26.611140	-2.400235	-29.040070	 7.501150	 11.346700	 74.656550	-7.264967	-1.288224	 28.362370	 2.710192	 2.635556	 6.183786	-0.547152	 0.296422	 3.858879	 0.991862	 1.554585	-3.465843	 0.720433	-112.847300	 6.532901	 92.971570	 43.773780	 25.483190	-11.781530	 4.942541	-0.214545	-0.833259	 3.881499	 12.728080	 5.571132	 0.831474	 7.813195	-0.352770	-5.946201	 13.766310	 1.538190	 4.999599	-3.213788	-0.327517	 3.175951	-6.833024	 0.927915	-1.263087	-5.605014	 3.901588	 123.225700	 10.411550	-96.358990	-5.788810	 38.685840	-2.702643	-5.884127	-0.200001	 0.807107	-8.222638	-9.832132	-21.089260	-2.405514	 5.151426	 0.892534	 12.590030	 23.600360	-5.329689	-8.505550	 13.676190	-0.561749
-0.007075	 1.238748	 0.011366	 1.859496	 0.139876	 170.926300	-157.977400	 10.006360	-36.818300	 4.201511	-15.386560	 2.157513	-9.422812	 57.707370	 3.083747	 1.160855	 26.673400	-2.659193	 170.227300	 9.916685	 26.727340	-2.396324	-29.048080	 7.331905	 10.401570	 74.341160	-6.395678	-1.287873	 28.357740	 2.710044	 2.838043	 6.103894	-1.493999	 0.228731	 3.837721	 1.018827	 1.603137	-3.528785	 0.807407	-112.687000	 6.555540	 92.988320	 43.825310	 25.498550	-11.728860	 5.316494	-0.215012	-1.181541	 4.111677	 12.310640	 5.277915	 0.955833	 7.426648	-0.350069	-5.944647	 13.853080	 1.547496	 5.005859	-3.075875	-0.324224	 3.171405	-6.836413	 0.954113	-1.267143	-5.682158	 4.101978	 123.118200	 10.429010	-96.347660	-5.738313	 38.622130	-2.597116	-6.262586	-0.200464	 1.155499	-8.712666	-10.360850	-20.646460	-2.450537	 5.292410	 0.890991	 12.618620	 23.972430	-5.420610	-8.507998	 13.980730	-0.580998
-0.007180	 1.239882	 0.011561	 1.816873	 0.050712	 170.502800	-157.868700	 10.010730	-37.535590	 4.244989	-15.537820	 1.997126	-9.568034	 57.567320	 3.349854	 1.160484	 26.668390	-2.659046	 170.172600	 10.085280	 26.799450	-2.392215	-29.053250	 7.161430	 9.493422	 74.051600	-5.562817	-1.287518	 28.353080	 2.709894	 3.040803	 6.018482	-2.462655	 0.192939	 3.824360	 1.029324	 1.637394	-3.595778	 0.894892	-112.525400	 6.578394	 93.005100	 43.884510	 25.519390	-11.683520	 5.693136	-0.215487	-1.532451	 4.327784	 11.876180	 4.955338	 1.081105	 7.036988	-0.346493	-5.943096	 13.940520	 1.556875	 5.012159	-2.936897	-0.320921	 3.166826	-6.839832	 0.980511	-1.270950	-5.759910	 4.303981	 123.009800	 10.446590	-96.336250	-5.702478	 38.557020	-2.481703	-6.642148	-0.200850	 1.506382	-9.207849	-10.898720	-20.235380	-2.495914	 5.434485	 0.889549	 12.648190	 24.347450	-5.512735	-8.510360	 14.287680	-0.600411
-0.007311	 1.241170	 0.011847	 1.763544	-0.063818	 169.958800	-157.732300	 10.013620	-38.418030	 4.298439	-15.723510	 1.791157	-9.773789	 57.422340	 3.700507	 1.160010	 26.661970	-2.658858	 170.120800	 10.305450	 26.847570	-2.386532	-29.053700	 6.943232	 8.377962	 73.705320	-4.544443	-1.287064	 28.347110	 2.709702	 3.298403	 5.901970	-3.722206	 0.191714	 3.819961	 0.983233	 1.663426	-3.686427	 1.043881	-112.318500	 6.607728	 93.026500	 43.969020	 25.547390	-11.636440	 6.175300	-0.216076	-1.981410	 4.581919	 11.307160	 4.505676	 1.241549	 6.537597	-0.340661	-5.941127	 14.052540	 1.568892	 5.020217	-2.758842	-0.316712	 3.160961	-6.844214	 1.014330	-1.275411	-5.859507	 4.562896	 122.871000	 10.469070	-96.321550	-5.675137	 38.467220	-2.321986	-7.128181	-0.201364	 1.955498	-9.844636	-11.587850	-19.756060	-2.554062	 5.616508	 0.887865	 12.687180	 24.827990	-5.631517	-8.513232	 14.681000	-0.625308
-0.007485	 1.242726	 0.012294	 1.693032	-0.219969	 169.215700	-157.549500	 10.011920	-39.575120	 4.367310	-15.962220	 1.509466	-10.077270	 57.265250	 4.189536	 1.159363	 26.653210	-2.658601	 170.076500	 10.610760	 26.857760	-2.378230	-29.045160	 6.645998	 6.922123	 73.260890	-3.223791	-1.286445	 28.338970	 2.709440	 3.645096	 5.730494	-5.469127	 0.262917	 3.840232	 0.970420	 1.660248	-3.824806	 1.158407	-112.036300	 6.647886	 93.055560	 44.094510	 25.577420	-11.588410	 6.831120	-0.216771	-2.592377	 4.890053	 10.519620	 3.830687	 1.460205	 5.856542	-0.330449	-5.938484	 14.205240	 1.585276	 5.031180	-2.516116	-0.311017	 3.152971	-6.850193	 1.060430	-1.280737	-5.995327	 4.916021	 122.681800	 10.499660	-96.301420	-5.675700	 38.328510	-2.081140	-7.785510	-0.201868	 2.566599	-10.721180	-12.517720	-19.179520	-2.633350	 5.864650	 0.885868	 12.742380	 25.483220	-5.794848	-8.516875	 15.217310	-0.659296
